<?xml version="1.0" encoding="UTF-8"?>
<!DOCTYPE svg PUBLIC "-//W3C//DTD SVG 1.1//EN" "http://www.w3.org/Graphics/SVG/1.1/DTD/svg11.dtd">
<!-- Creator: CorelDRAW (Wersja próbna) -->
<?xml-stylesheet href="border1.css" type="text/css"?>
<svg xmlns="http://www.w3.org/2000/svg" xml:space="preserve" width="303px" height="77px" version="1.1" style="shape-rendering:geometricPrecision; text-rendering:geometricPrecision; image-rendering:optimizeQuality; fill-rule:evenodd; clip-rule:evenodd"
viewBox="0 0 303.04 77.12"
 xmlns:xlink="http://www.w3.org/1999/xlink"
 xmlns:xodm="http://www.corel.com/coreldraw/odm/2003">
 <g id="Warstwa_x0020_1">
  <metadata id="CorelCorpID_0Corel-Layer"/>
  <g>
   <path class="fil0" d="M269.52 77.12l-240.26 0 0 -1.92 240.26 0 0.93 1.32 -0.93 0.6zm0.93 -0.6l-0.26 0.6 -0.67 0 0.93 -0.6zm32.03 -75.2l-32.03 75.2 -1.86 -0.73 32.04 -75.19 0.92 -0.6 0.93 1.32zm-0.93 -1.32l1.49 0 -0.56 1.32 -0.93 -1.32zm-300.13 0l300.13 0 0 1.92 -300.13 0 -0.94 -0.64 0.94 -1.28zm-0.94 1.28l-0.48 -1.28 1.42 0 -0.94 1.28zm27.84 75.2l-27.84 -75.2 1.88 -0.64 27.85 75.2 -0.95 1.28 -0.94 -0.64zm0.94 0.64l-0.7 0 -0.24 -0.64 0.94 0.64z"/>
  </g>
 </g>
</svg>
