<?xml version="1.0" encoding="UTF-8"?>
<!DOCTYPE svg PUBLIC "-//W3C//DTD SVG 1.1//EN" "http://www.w3.org/Graphics/SVG/1.1/DTD/svg11.dtd">
<!-- Creator: CorelDRAW (Wersja próbna) -->
<svg xmlns="http://www.w3.org/2000/svg" xml:space="preserve" width="303px" height="77px" version="1.1" shape-rendering="geometricPrecision" text-rendering="geometricPrecision" image-rendering="optimizeQuality" fill-rule="evenodd" clip-rule="evenodd"
viewBox="0 0 372.03 94.67"
 xmlns:xlink="http://www.w3.org/1999/xlink"
 xmlns:xodm="http://www.corel.com/coreldraw/odm/2003">
 <g id="Warstwa_x0020_1">
  <metadata id="CorelCorpID_0Corel-Layer"/>
  <g>
   <polygon fill="#2B2A29" fill-opacity="0.850980" points="35.93,93.49 330.87,93.49 370.2,1.18 1.74,1.18 "/>
   <path id="_1" fill="#D1D0D1" fill-rule="nonzero" d="M330.87 94.67l-294.94 0 0 -2.36 294.94 0 1.14 1.63 -1.14 0.73zm1.14 -0.73l-0.31 0.73 -0.83 0 1.14 -0.73zm39.33 -92.31l-39.33 92.31 -2.28 -0.89 39.33 -92.32 1.14 -0.73 1.14 1.63zm-1.14 -1.63l1.83 0 -0.69 1.63 -1.14 -1.63zm-368.46 0l368.46 0 0 2.36 -368.46 0 -1.16 -0.79 1.16 -1.57zm-1.16 1.57l-0.58 -1.57 1.74 0 -1.16 1.57zm34.19 92.32l-34.19 -92.32 2.32 -0.79 34.18 92.32 -1.15 1.57 -1.16 -0.78zm1.16 0.78l-0.87 0 -0.29 -0.78 1.16 0.78z"/>
  </g>
 </g>
</svg>
