<?xml version="1.0" encoding="UTF-8"?>
<!DOCTYPE svg PUBLIC "-//W3C//DTD SVG 1.1//EN" "http://www.w3.org/Graphics/SVG/1.1/DTD/svg11.dtd">
<!-- Creator: CorelDRAW (Wersja próbna) -->
<?xml-stylesheet href="border2.css" type="text/css"?>
<svg xmlns="http://www.w3.org/2000/svg" xml:space="preserve" width="247px" height="77px" version="1.1" style="shape-rendering:geometricPrecision; text-rendering:geometricPrecision; image-rendering:optimizeQuality; fill-rule:evenodd; clip-rule:evenodd"
viewBox="0 0 245.25 76.67"
 xmlns:xlink="http://www.w3.org/1999/xlink"
 xmlns:xodm="http://www.corel.com/coreldraw/odm/2003">
 <g id="Warstwa_x0020_1">
  <metadata id="CorelCorpID_0Corel-Layer"/>
  <g>
   <path class="fil0" d="M217.98 76.67l-194.15 0 0 -1.91 194.15 0 0.95 1.26 -0.95 0.65zm0.95 -0.65l-0.23 0.65 -0.72 0 0.95 -0.65zm25.88 -74.76l-25.88 74.76 -1.89 -0.6 25.89 -74.77 0.94 -0.65 0.94 1.26zm-0.94 -1.26l1.38 0 -0.44 1.26 -0.94 -1.26zm-242.55 0l242.55 0 0 1.91 -242.55 0 -0.95 -0.69 0.95 -1.22zm-0.95 1.22l-0.37 -1.22 1.32 0 -0.95 1.22zm22.5 74.76l-22.5 -74.76 1.91 -0.53 22.5 74.76 -0.95 1.22 -0.96 -0.69zm0.96 0.69l-0.75 0 -0.21 -0.69 0.96 0.69z"/>
  </g>
 </g>
</svg>
